<svg width="62" height="60" viewBox="0 0 62 60" fill="none" xmlns="http://www.w3.org/2000/svg" xmlns:xlink="http://www.w3.org/1999/xlink">
<mask id="mask_0_4_169" style="mask-type:alpha" maskUnits="userSpaceOnUse" x="0" y="0.103271" width="29.045101" height="29.948364">
<rect  x="0" y="0.103" width="58.09" height="59.897" fill="#D9D9D9"/>
</mask>
<g mask="url(#mask_0_4_169)">
<path d="M41,60C38.095,60 35.365,59.475 32.81,58.425C30.255,57.375 28.033,55.95 26.142,54.15C24.252,52.35 22.756,50.233 21.654,47.8C20.551,45.367 20,42.767 20,40C20,37.233 20.551,34.633 21.654,32.2C22.756,29.767 24.252,27.65 26.142,25.85C28.033,24.05 30.255,22.625 32.81,21.575C35.365,20.525 38.095,20 41,20C43.905,20 46.635,20.525 49.19,21.575C51.745,22.625 53.967,24.05 55.857,25.85C57.748,27.65 59.244,29.767 60.346,32.2C61.449,34.633 62,37.233 62,40L62,42.9C62,44.867 61.291,46.542 59.874,47.925C58.456,49.308 56.715,50 54.65,50C53.425,50 52.27,49.75 51.185,49.25C50.1,48.75 49.19,48.033 48.455,47.1C47.44,48.067 46.294,48.792 45.016,49.275C43.739,49.758 42.4,50 41,50C38.095,50 35.619,49.025 33.571,47.075C31.524,45.125 30.5,42.767 30.5,40C30.5,37.233 31.524,34.875 33.571,32.925C35.619,30.975 38.095,30 41,30C43.905,30 46.381,30.975 48.429,32.925C50.476,34.875 51.5,37.233 51.5,40L51.5,42.9C51.5,43.767 51.797,44.5 52.392,45.1C52.987,45.7 53.74,46 54.65,46C55.56,46 56.312,45.7 56.908,45.1C57.502,44.5 57.8,43.767 57.8,42.9L57.8,40C57.8,35.533 56.173,31.75 52.917,28.65C49.662,25.55 45.69,24 41,24C36.31,24 32.337,25.55 29.082,28.65C25.827,31.75 24.2,35.533 24.2,40C24.2,44.467 25.827,48.25 29.082,51.35C32.337,54.45 36.31,56 41,56L51.5,56L51.5,60L41,60ZM41,46C42.75,46 44.237,45.417 45.462,44.25C46.687,43.083 47.3,41.667 47.3,40C47.3,38.333 46.687,36.917 45.462,35.75C44.237,34.583 42.75,34 41,34C39.25,34 37.762,34.583 36.538,35.75C35.313,36.917 34.7,38.333 34.7,40C34.7,41.667 35.313,43.083 36.538,44.25C37.762,45.417 39.25,46 41,46Z" fill="#1C1B1F"/>
</g>
</svg>
