<svg width="36" height="34" viewBox="0 0 36 34" fill="none" xmlns="http://www.w3.org/2000/svg" xmlns:xlink="http://www.w3.org/1999/xlink">
<mask id="mask_0_4_128" style="mask-type:alpha" maskUnits="userSpaceOnUse" x="0" y="0" width="18" height="17">
<rect  x="0" y="0" width="36" height="34" fill="#D9D9D9"/>
</mask>
<g mask="url(#mask_0_4_128)">
<path d="M7.5,29.75C6.675,29.75 5.969,29.473 5.381,28.918C4.794,28.363 4.5,27.696 4.5,26.917L4.5,7.083C4.5,6.304 4.794,5.637 5.381,5.082C5.969,4.528 6.675,4.25 7.5,4.25L13.8,4.25C14.15,3.4 14.7,2.715 15.45,2.196C16.2,1.676 17.05,1.417 18,1.417C18.95,1.417 19.8,1.676 20.55,2.196C21.3,2.715 21.85,3.4 22.2,4.25L28.5,4.25C29.325,4.25 30.031,4.528 30.619,5.082C31.206,5.637 31.5,6.304 31.5,7.083L31.5,26.917C31.5,27.696 31.206,28.363 30.619,28.918C30.031,29.473 29.325,29.75 28.5,29.75L7.5,29.75ZM18,6.021C18.325,6.021 18.594,5.921 18.806,5.72C19.019,5.519 19.125,5.265 19.125,4.958C19.125,4.651 19.019,4.398 18.806,4.197C18.594,3.996 18.325,3.896 18,3.896C17.675,3.896 17.406,3.996 17.194,4.197C16.981,4.398 16.875,4.651 16.875,4.958C16.875,5.265 16.981,5.519 17.194,5.72C17.406,5.921 17.675,6.021 18,6.021ZM7.5,25.288C8.85,24.036 10.419,23.05 12.206,22.33C13.994,21.61 15.925,21.25 18,21.25C20.075,21.25 22.006,21.61 23.794,22.33C25.581,23.05 27.15,24.036 28.5,25.288L28.5,7.083L7.5,7.083L7.5,25.288ZM18,18.417C19.45,18.417 20.688,17.933 21.713,16.965C22.737,15.997 23.25,14.828 23.25,13.458C23.25,12.089 22.737,10.92 21.713,9.952C20.688,8.984 19.45,8.5 18,8.5C16.55,8.5 15.313,8.984 14.287,9.952C13.263,10.92 12.75,12.089 12.75,13.458C12.75,14.828 13.263,15.997 14.287,16.965C15.313,17.933 16.55,18.417 18,18.417ZM10.5,26.917L25.5,26.917L25.5,26.563C24.45,25.736 23.287,25.116 22.013,24.703C20.737,24.29 19.4,24.083 18,24.083C16.6,24.083 15.263,24.29 13.987,24.703C12.713,25.116 11.55,25.736 10.5,26.563L10.5,26.917ZM18,15.583C17.375,15.583 16.844,15.377 16.406,14.964C15.969,14.55 15.75,14.049 15.75,13.458C15.75,12.868 15.969,12.366 16.406,11.953C16.844,11.54 17.375,11.333 18,11.333C18.625,11.333 19.156,11.54 19.594,11.953C20.031,12.366 20.25,12.868 20.25,13.458C20.25,14.049 20.031,14.55 19.594,14.964C19.156,15.377 18.625,15.583 18,15.583Z" fill="#FFFFFF"/>
</g>
</svg>
