<svg width="36" height="40" viewBox="0 0 36 40" fill="none" xmlns="http://www.w3.org/2000/svg" xmlns:xlink="http://www.w3.org/1999/xlink">
<path d="M18,12.667C16.619,12.667 15.269,13.097 14.121,13.902C12.972,14.708 12.077,15.854 11.549,17.193C11.02,18.533 10.882,20.008 11.152,21.431C11.421,22.853 12.086,24.16 13.062,25.185C14.039,26.211 15.283,26.909 16.638,27.192C17.992,27.475 19.396,27.33 20.672,26.775C21.948,26.22 23.038,25.28 23.806,24.074C24.573,22.868 24.983,21.45 24.983,20C24.98,18.056 24.244,16.192 22.935,14.817C21.626,13.442 19.851,12.669 18,12.667ZM18,24.667C17.121,24.667 16.262,24.393 15.531,23.88C14.801,23.367 14.231,22.638 13.895,21.786C13.558,20.933 13.47,19.995 13.642,19.089C13.813,18.184 14.236,17.353 14.858,16.7C15.479,16.047 16.271,15.603 17.133,15.423C17.995,15.243 18.888,15.335 19.7,15.688C20.512,16.042 21.206,16.64 21.695,17.407C22.183,18.175 22.443,19.077 22.443,20C22.442,21.237 21.974,22.423 21.14,23.298C20.307,24.173 19.178,24.665 18,24.667Z" fill="#FFFFFF"/>
<path d="M35.421,25.527L32.9,23.347C33.347,21.14 33.347,18.86 32.9,16.653L35.421,14.473C35.711,14.223 35.908,13.873 35.975,13.484C36.042,13.096 35.975,12.695 35.786,12.354L33.198,7.647C33.011,7.304 32.714,7.043 32.36,6.909C32.006,6.776 31.619,6.78 31.267,6.919L28.208,8.123C26.614,6.611 24.733,5.469 22.69,4.774L22.153,1.393C22.092,1.003 21.901,0.649 21.614,0.394C21.327,0.139 20.963,-0.001 20.587,0L15.412,0C15.036,-0.001 14.672,0.139 14.385,0.394C14.099,0.649 13.908,1.003 13.847,1.393L13.31,4.774C11.267,5.469 9.386,6.611 7.792,8.123L4.732,6.919C4.381,6.78 3.993,6.776 3.639,6.909C3.286,7.043 2.989,7.304 2.802,7.646L0.214,12.354C0.025,12.695 -0.042,13.096 0.025,13.484C0.092,13.873 0.289,14.223 0.58,14.474L3.1,16.653C2.653,18.86 2.653,21.14 3.1,23.347L0.58,25.527C0.289,25.777 0.092,26.127 0.025,26.516C-0.042,26.904 0.025,27.305 0.214,27.646L2.802,32.353C2.989,32.696 3.286,32.957 3.64,33.09C3.994,33.224 4.381,33.22 4.733,33.081L7.793,31.877C9.386,33.389 11.267,34.531 13.31,35.226L13.847,38.607C13.908,38.997 14.099,39.351 14.385,39.606C14.672,39.861 15.036,40.001 15.412,40L20.587,40C20.963,40.001 21.327,39.861 21.614,39.606C21.901,39.351 22.092,38.997 22.153,38.607L22.689,35.226C24.733,34.531 26.613,33.389 28.207,31.877L31.267,33.081C31.619,33.22 32.006,33.224 32.36,33.09C32.714,32.957 33.011,32.696 33.198,32.353L35.786,27.646C35.974,27.305 36.041,26.904 35.974,26.516C35.907,26.127 35.711,25.777 35.421,25.527ZM31.403,30.287L27.585,28.785L27.007,29.396C25.417,31.079 23.428,32.287 21.245,32.893L20.451,33.113L19.781,37.333L16.219,37.333L15.549,33.113L14.756,32.893C12.573,32.287 10.584,31.079 8.993,29.396L8.415,28.785L4.597,30.287L2.817,27.047L5.961,24.328L5.747,23.497C5.158,21.207 5.158,18.793 5.747,16.503L5.961,15.672L2.817,12.953L4.598,9.713L8.415,11.215L8.993,10.604C10.583,8.921 12.573,7.713 14.756,7.106L15.549,6.887L16.219,2.667L19.781,2.667L20.451,6.887L21.244,7.106C23.427,7.713 25.417,8.921 27.007,10.604L27.585,11.215L31.402,9.713L33.184,12.953L30.039,15.672L30.253,16.503C30.842,18.793 30.842,21.207 30.253,23.497L30.039,24.328L33.184,27.047L31.403,30.287Z" fill="#FFFFFF"/>
</svg>
