<svg width="66" height="74" viewBox="0 0 66 74" fill="none" xmlns="http://www.w3.org/2000/svg" xmlns:xlink="http://www.w3.org/1999/xlink">
<mask id="mask_0_4_167" style="mask-type:alpha" maskUnits="userSpaceOnUse" x="0" y="8" width="29" height="33">
<rect  x="0" y="8" width="58" height="66" fill="#000000"/>
</mask>
<g mask="url(#mask_0_4_167)">
<path d="M23.763,39.338C23.203,39.338 22.729,39.117 22.343,38.675C21.956,38.232 21.763,37.69 21.763,37.049C21.763,36.407 21.956,35.867 22.343,35.428C22.729,34.989 23.203,34.77 23.763,34.77L63.985,34.77C64.55,34.77 65.027,34.992 65.416,35.437C65.805,35.881 66,36.426 66,37.071C66,37.716 65.805,38.255 65.416,38.688C65.027,39.122 64.55,39.338 63.985,39.338L23.763,39.338ZM23.763,27.726C23.203,27.726 22.729,27.505 22.343,27.062C21.956,26.62 21.763,26.079 21.763,25.437C21.763,24.784 21.956,24.24 22.343,23.807C22.729,23.374 23.203,23.157 23.763,23.157L63.985,23.157C64.55,23.157 65.027,23.378 65.416,23.819C65.805,24.261 66,24.805 66,25.453C66,26.101 65.805,26.642 65.416,27.076C65.027,27.509 64.55,27.726 63.985,27.726L23.763,27.726ZM23.763,16.198C23.203,16.198 22.729,15.977 22.343,15.536C21.956,15.094 21.763,14.55 21.763,13.902C21.763,13.254 21.956,12.713 22.343,12.279C22.729,11.846 23.203,11.629 23.763,11.629L63.985,11.629C64.55,11.629 65.027,11.85 65.416,12.293C65.805,12.735 66,13.276 66,13.918C66,14.571 65.805,15.115 65.416,15.548C65.027,15.981 64.55,16.198 63.985,16.198L23.763,16.198ZM23.763,4.569C23.203,4.569 22.729,4.348 22.343,3.905C21.956,3.463 21.763,2.921 21.763,2.279C21.763,1.638 21.956,1.097 22.343,0.658C22.729,0.219 23.203,0 23.763,0L63.985,0C64.55,0 65.027,0.222 65.416,0.667C65.805,1.112 66,1.656 66,2.301C66,2.946 65.805,3.485 65.416,3.919C65.027,4.352 64.55,4.569 63.985,4.569L23.763,4.569Z" fill="#000000"/>
</g>
</svg>
