<svg width="44" height="46" viewBox="0 0 44 46" fill="none" xmlns="http://www.w3.org/2000/svg" xmlns:xlink="http://www.w3.org/1999/xlink">
<path d="M42.985,18.711L23.481,0.876C22.847,0.297 22.012,-0.017 21.15,0.001C20.289,0.019 19.468,0.367 18.859,0.972L0.921,18.801L0,19.716L0,46L17.286,46L17.286,29.6L26.714,29.6L26.714,46L44,46L44,19.639L42.985,18.711ZM21.218,3.124C21.246,3.124 21.229,3.13 21.217,3.141C21.204,3.13 21.19,3.124 21.218,3.124ZM40.857,42.876L29.857,42.876L29.857,29.6C29.857,28.772 29.526,27.977 28.937,27.392C28.347,26.806 27.548,26.477 26.714,26.477L17.286,26.477C16.452,26.477 15.653,26.806 15.063,27.392C14.474,27.977 14.143,28.772 14.143,29.6L14.143,42.876L3.143,42.876L3.143,21.01L21.218,3.181C21.219,3.18 21.219,3.179 21.22,3.177L40.857,21.01L40.857,42.876Z" fill="#000000"/>
</svg>
