<svg width="50" height="38" viewBox="0 0 50 38" fill="none" xmlns="http://www.w3.org/2000/svg" xmlns:xlink="http://www.w3.org/1999/xlink">
<path d="M3.125,19C3.125,23.409 5.43,27.638 9.532,30.756C13.634,33.873 19.198,35.625 25,35.625C30.802,35.625 36.366,33.873 40.468,30.756C44.57,27.638 46.875,23.409 46.875,19C46.875,14.591 44.57,10.362 40.468,7.244C36.366,4.127 30.802,2.375 25,2.375C19.198,2.375 13.634,4.127 9.532,7.244C5.43,10.362 3.125,14.591 3.125,19ZM50,19C50,24.039 47.366,28.872 42.678,32.435C37.989,35.998 31.63,38 25,38C18.37,38 12.011,35.998 7.322,32.435C2.634,28.872 0,24.039 0,19C0,13.961 2.634,9.128 7.322,5.565C12.011,2.002 18.37,0 25,0C31.63,0 37.989,2.002 42.678,5.565C47.366,9.128 50,13.961 50,19ZM25.456,11.856C21.669,11.856 19.434,14.041 19.434,17.798L19.434,20.316C19.434,24.047 21.631,26.163 25.456,26.163C28.516,26.163 30.584,24.771 30.859,22.795L34.906,22.795L34.906,23.016C34.594,26.455 30.675,28.875 25.438,28.875C18.903,28.875 15.222,25.702 15.222,20.318L15.222,17.77C15.222,12.4 18.975,9.13 25.441,9.13C30.694,9.13 34.612,11.633 34.906,15.238L34.906,15.447L30.859,15.447C30.584,13.359 28.459,11.856 25.456,11.856Z" fill="#FFFFFF"/>
</svg>
