<svg width="22" height="28" viewBox="0 0 22 28" fill="none" xmlns="http://www.w3.org/2000/svg" xmlns:xlink="http://www.w3.org/1999/xlink">
<path d="M22,28L19.692,28L11.001,21.303L2.322,28L0,28L0,0L22,0L22,28ZM2.095,1.867L2.095,25.706L10.999,18.834L19.905,25.696L19.905,1.867L2.095,1.867M59.905,68L22,68L19.692,68L15.962,68L12.762,68L11.018,69.346L59.905,107.015M6.069,68L2.322,68L0,68L-37.905,68L-37.905,107.101L11.018,69.346L9.272,68M2.322,28L2.095,27.706L2.095,28" fill-rule="evenodd" fill="#FFFFFF"/>
<path d="M59.905,68L22,68L19.692,68L15.962,68L12.762,68L11.018,69.346L59.905,107.015M6.069,68L2.322,68L0,68L-37.905,68L-37.905,107.101L11.018,69.346L9.272,68M2.322,28L2.095,27.706L2.095,28" fill="#FFFFFF"/>
</svg>
